<svg xmlns="http://www.w3.org/2000/svg" version="1.1" width="960pt" height="320pt" viewBox="0 0 960 320">
  <desc>Wireframe: A — geldstroom: dikte is het aandeel</desc>
  <text id="aanhef-rol-0" x="30" font-family="Montserrat SemiBold, Montserrat, sans-serif" font-weight="600" font-size="10" fill="#21145F" fill-opacity="0.6" letter-spacing="1.5" xml:space="preserve"><tspan x="30" y="55.19">AANHEF</tspan></text>
  <text id="drager-rol-0" x="30" font-family="Montserrat SemiBold, Montserrat, sans-serif" font-weight="600" font-size="10" fill="#21145F" fill-opacity="0.6" letter-spacing="1.5" xml:space="preserve"><tspan x="30" y="93.19">DRAGER</tspan></text>
  <rect id="Bronbalk" x="230" y="40" width="8" height="150" fill="#21145F" fill-opacity="0.55"/>
  <path id="Stroom-1" d="M 238.0 40.0 C 468.0 40.0 468.0 40.0 698 40.0 L 698 93.0 C 468.0 93.0 468.0 118.0 238.0 118.0 Z" fill="#21145F" fill-opacity="0.16"/>
  <rect id="Uitbalk-1" x="698" y="40" width="8" height="53.04" fill="#21145F" fill-opacity="0.45"/>
  <path id="Stroom-2" d="M 238.0 118.0 C 468.0 118.0 468.0 109.0 698 109.0 L 698 135.6 C 468.0 135.6 468.0 157.0 238.0 157.0 Z" fill="#21145F" fill-opacity="0.16"/>
  <rect id="Uitbalk-2" x="698" y="109.04" width="8" height="26.52" fill="#21145F" fill-opacity="0.45"/>
  <path id="Stroom-3" d="M 238.0 157.0 C 468.0 157.0 468.0 151.6 698 151.6 L 698 165.8 C 468.0 165.8 468.0 178.0 238.0 178.0 Z" fill="#21145F" fill-opacity="0.16"/>
  <rect id="Uitbalk-3" x="698" y="151.56" width="8" height="14.28" fill="#21145F" fill-opacity="0.45"/>
  <path id="Stroom-4" d="M 238.0 178.0 C 468.0 178.0 468.0 181.8 698 181.8 L 698 190.0 C 468.0 190.0 468.0 190.0 238.0 190.0 Z" fill="#21145F" fill-opacity="0.16"/>
  <rect id="Uitbalk-4" x="698" y="181.84" width="8" height="8.16" fill="#21145F" fill-opacity="0.45"/>
  <text id="post-aandeel-rol-0" x="714" font-family="Montserrat SemiBold, Montserrat, sans-serif" font-weight="600" font-size="10" fill="#21145F" fill-opacity="0.6" letter-spacing="1.5" xml:space="preserve"><tspan x="714" y="69.19">POST + AANDEEL</tspan></text>
  <text id="post-aandeel-rol-0" x="714" font-family="Montserrat SemiBold, Montserrat, sans-serif" font-weight="600" font-size="10" fill="#21145F" fill-opacity="0.6" letter-spacing="1.5" xml:space="preserve"><tspan x="714" y="109.19">POST + AANDEEL</tspan></text>
  <text id="post-aandeel-rol-0" x="714" font-family="Montserrat SemiBold, Montserrat, sans-serif" font-weight="600" font-size="10" fill="#21145F" fill-opacity="0.6" letter-spacing="1.5" xml:space="preserve"><tspan x="714" y="149.19">POST + AANDEEL</tspan></text>
  <text id="post-aandeel-rol-0" x="714" font-family="Montserrat SemiBold, Montserrat, sans-serif" font-weight="600" font-size="10" fill="#21145F" fill-opacity="0.6" letter-spacing="1.5" xml:space="preserve"><tspan x="714" y="189.19">POST + AANDEEL</tspan></text>
  <line id="Slotstreep" x1="30" y1="232" x2="930" y2="232" stroke="#21145F" stroke-width="0.75" stroke-opacity="0.2"/>
  <text id="sluitregel-rol-0" x="30" font-family="Montserrat SemiBold, Montserrat, sans-serif" font-weight="600" font-size="10" fill="#21145F" fill-opacity="0.6" letter-spacing="1.5" xml:space="preserve"><tspan x="30" y="259.19">SLUITREGEL</tspan></text>
  <text id="bronregel-rol-0" x="930" font-family="Montserrat SemiBold, Montserrat, sans-serif" font-weight="600" font-size="10" fill="#21145F" fill-opacity="0.6" letter-spacing="1.5" text-anchor="end" xml:space="preserve"><tspan x="930" y="259.19">BRONREGEL</tspan></text>
  <text id="Onderschrift-0" x="0" font-family="Lato Light, Lato, sans-serif" font-weight="300" font-size="12" fill="#21145F" fill-opacity="0.55" xml:space="preserve"><tspan x="0" y="317.36">A — geldstroom: dikte is het aandeel</tspan></text>
</svg>
